<svg width="1342" height="267" viewBox="0 0 1342 267" fill="none" xmlns="http://www.w3.org/2000/svg">
<path d="M45.6534 267C41.2351 267 37.6534 263.418 37.6534 259V237.628C37.6534 233.21 34.0717 229.628 29.6534 229.628H7.99999C3.58172 229.628 0 226.047 0 221.628V8C0 3.58172 3.58172 0 8 0H33.7911C38.2094 0 41.7911 3.58172 41.7911 8V67.1586C41.7911 71.5769 45.3728 75.1586 49.7911 75.1586H146.338C150.756 75.1586 154.338 78.7404 154.338 83.1586V104.946C154.338 109.364 157.919 112.946 162.338 112.946H184.405C188.823 112.946 192.405 116.527 192.405 120.946V221.628C192.405 226.047 188.823 229.628 184.405 229.628H162.338C157.919 229.628 154.338 233.21 154.338 237.628V259C154.338 263.418 150.756 267 146.338 267H45.6534ZM41.7911 217.476C41.7911 221.894 45.3729 225.476 49.7911 225.476H142.2C146.618 225.476 150.2 221.894 150.2 217.476V124.683C150.2 120.264 146.618 116.683 142.2 116.683H49.7911C45.3728 116.683 41.7911 120.264 41.7911 124.683V217.476Z" fill="#020011"/>
<path d="M250.445 267C246.027 267 242.445 263.418 242.445 259V83.1586C242.445 78.7404 246.027 75.1586 250.445 75.1586H276.237C280.655 75.1586 284.237 78.7404 284.237 83.1586V259C284.237 263.418 280.655 267 276.237 267H250.445ZM250.445 41.9394C246.027 41.9394 242.445 38.3576 242.445 33.9394V8C242.445 3.58173 246.027 0 250.445 0H276.237C280.655 0 284.237 3.58172 284.237 8V33.9393C284.237 38.3576 280.655 41.9394 276.237 41.9394H250.445Z" fill="#020011"/>
<path d="M404.537 267C400.119 267 396.537 263.418 396.537 259V237.628C396.537 233.21 392.956 229.628 388.537 229.628H367.298C362.879 229.628 359.298 226.047 359.298 221.628V124.683C359.298 120.264 355.716 116.683 351.298 116.683H329.644C325.226 116.683 321.644 113.101 321.644 108.683V83.1586C321.644 78.7404 325.226 75.1586 329.644 75.1586H351.298C355.716 75.1586 359.298 71.5769 359.298 67.1586V7.99999C359.298 3.58172 362.879 0 367.298 0H392.675C397.093 0 400.675 3.58172 400.675 8V67.1586C400.675 71.5769 404.257 75.1586 408.675 75.1586H506.049C510.467 75.1586 514.049 78.7404 514.049 83.1586V108.683C514.049 113.101 510.467 116.683 506.049 116.683H408.675C404.257 116.683 400.675 120.264 400.675 124.683V217.476C400.675 221.894 404.257 225.476 408.675 225.476H501.911C506.329 225.476 509.911 221.894 509.911 217.476V195.689C509.911 191.271 513.493 187.689 517.911 187.689H543.702C548.121 187.689 551.702 191.271 551.702 195.689V221.628C551.702 226.047 548.121 229.628 543.702 229.628H522.049C517.631 229.628 514.049 233.21 514.049 237.628V259C514.049 263.418 510.467 267 506.049 267H404.537Z" fill="#020011"/>
<path d="M639.241 267C634.822 267 631.241 263.418 631.241 259V237.628C631.241 233.21 627.659 229.628 623.241 229.628H601.587C597.169 229.628 593.587 226.047 593.587 221.628V120.946C593.587 116.527 597.169 112.946 601.587 112.946H623.241C627.659 112.946 631.241 109.364 631.241 104.946V83.1586C631.241 78.7404 634.822 75.1586 639.241 75.1586H739.925C744.343 75.1586 747.925 78.7404 747.925 83.1586V104.946C747.925 109.364 751.506 112.946 755.925 112.946H777.992C782.41 112.946 785.992 116.527 785.992 120.946V146.054C785.992 150.473 782.41 154.054 777.992 154.054H751.787C747.369 154.054 743.787 150.473 743.787 146.054V124.683C743.787 120.264 740.205 116.683 735.787 116.683H643.378C638.96 116.683 635.378 120.264 635.378 124.683V217.476C635.378 221.894 638.96 225.476 643.378 225.476H735.787C740.205 225.476 743.787 221.894 743.787 217.476V195.689C743.787 191.271 747.369 187.689 751.787 187.689H777.992C782.41 187.689 785.992 191.271 785.992 195.689V221.628C785.992 226.047 782.41 229.628 777.992 229.628H755.925C751.506 229.628 747.925 233.21 747.925 237.628V259C747.925 263.418 744.343 267 739.925 267H639.241Z" fill="#020011"/>
<path d="M869.16 267C864.741 267 861.16 263.418 861.16 259V237.628C861.16 233.21 857.578 229.628 853.16 229.628H831.506C827.088 229.628 823.506 226.047 823.506 221.628V120.946C823.506 116.527 827.088 112.946 831.506 112.946H853.16C857.578 112.946 861.16 109.364 861.16 104.946V83.1586C861.16 78.7404 864.741 75.1586 869.16 75.1586H969.844C974.262 75.1586 977.844 78.7404 977.844 83.1586V104.946C977.844 109.364 981.425 112.946 985.844 112.946H1007.91C1012.33 112.946 1015.91 116.527 1015.91 120.946V221.628C1015.91 226.047 1012.33 229.628 1007.91 229.628H985.844C981.425 229.628 977.844 233.21 977.844 237.628V259C977.844 263.418 974.262 267 969.844 267H869.16ZM865.297 217.476C865.297 221.894 868.879 225.476 873.297 225.476H965.706C970.124 225.476 973.706 221.894 973.706 217.476V124.683C973.706 120.264 970.124 116.683 965.706 116.683H873.297C868.879 116.683 865.297 120.264 865.297 124.683V217.476Z" fill="#020011"/>
<path d="M1073.95 267C1069.53 267 1065.95 263.418 1065.95 259V83.1586C1065.95 78.7404 1069.53 75.1586 1073.95 75.1586H1099.74C1104.16 75.1586 1107.74 78.7404 1107.74 83.1586V259C1107.74 263.418 1104.16 267 1099.74 267H1073.95ZM1073.95 41.9394C1069.53 41.9394 1065.95 38.3576 1065.95 33.9394V8C1065.95 3.58173 1069.53 0 1073.95 0H1099.74C1104.16 0 1107.74 3.58172 1107.74 8V33.9393C1107.74 38.3576 1104.16 41.9394 1099.74 41.9394H1073.95Z" fill="#020011"/>
<path d="M1157.6 267C1153.18 267 1149.6 263.418 1149.6 259V83.1586C1149.6 78.7404 1153.18 75.1586 1157.6 75.1586H1295.93C1300.35 75.1586 1303.93 78.7404 1303.93 83.1586V104.946C1303.93 109.364 1307.51 112.946 1311.93 112.946H1334C1338.42 112.946 1342 116.527 1342 120.946V259C1342 263.418 1338.42 267 1334 267H1307.8C1303.38 267 1299.8 263.418 1299.8 259V124.683C1299.8 120.264 1296.21 116.683 1291.8 116.683H1199.39C1194.97 116.683 1191.39 120.264 1191.39 124.683V259C1191.39 263.418 1187.8 267 1183.39 267H1157.6Z" fill="#020011"/>
</svg>
