<svg width="18" height="18" viewBox="0 0 18 18" fill="none" xmlns="http://www.w3.org/2000/svg">
<path d="M15.2316 3.16025C14.084 2.62295 12.8542 2.22732 11.5677 2.00099C11.5441 1.99654 11.5205 2.00723 11.5091 2.02951C11.3511 2.31643 11.1755 2.69156 11.0532 2.9856C9.66976 2.77442 8.29328 2.77442 6.93775 2.9856C6.8146 2.68443 6.63293 2.31643 6.47397 2.02951C6.46174 2.00812 6.43817 1.99743 6.41546 2.00099C5.1298 2.22732 3.89918 2.62295 2.75152 3.16025C2.74191 3.1647 2.73318 3.17183 2.72706 3.18163C0.393322 6.73869 -0.246028 10.2084 0.0675245 13.6354C0.0692713 13.6523 0.0780071 13.6684 0.0911082 13.6782C1.63092 14.8321 3.12272 15.5324 4.58655 15.9967C4.61013 16.0038 4.63458 15.9949 4.64943 15.9753C4.9953 15.4932 5.30449 14.9845 5.56913 14.4489C5.58485 14.4177 5.56912 14.3803 5.53768 14.3678C5.0477 14.178 4.58217 13.9473 4.13324 13.6853C4.09743 13.6639 4.09482 13.6122 4.12714 13.5873C4.22147 13.5151 4.31579 13.4403 4.40575 13.3645C4.42234 13.3503 4.44505 13.3476 4.46426 13.3565C7.41026 14.7287 10.5999 14.7287 13.511 13.3565C13.5302 13.3467 13.5529 13.3503 13.5695 13.3636C13.6595 13.4394 13.7538 13.5151 13.849 13.5873C13.8813 13.6122 13.8796 13.6639 13.8438 13.6853C13.3957 13.9526 12.9293 14.1789 12.4385 14.3678C12.4061 14.3803 12.3922 14.4177 12.4079 14.4498C12.6786 14.9836 12.987 15.4923 13.3267 15.9753C13.3407 15.9958 13.366 16.0047 13.3896 15.9976C14.8604 15.5333 16.3522 14.833 17.892 13.6791C17.9051 13.6693 17.9138 13.6532 17.9156 13.6372C18.2912 9.67558 17.2867 6.23436 15.2543 3.18342C15.2491 3.17361 15.2412 3.1656 15.2307 3.16114L15.2316 3.16025ZM6.00756 11.5486C5.12018 11.5486 4.39003 10.7181 4.39003 9.69786C4.39003 8.67762 5.10708 7.84716 6.00756 7.84716C6.90805 7.84716 7.63996 8.68563 7.62511 9.69786C7.62511 10.7181 6.90805 11.5486 6.00756 11.5486ZM11.9895 11.5486C11.1021 11.5486 10.372 10.7181 10.372 9.69786C10.372 8.67762 11.089 7.84716 11.9895 7.84716C12.89 7.84716 13.6219 8.68563 13.6071 9.69786C13.6071 10.7181 12.8979 11.5486 11.9895 11.5486Z" fill="white"/>
</svg>
