<svg width="18" height="18" viewBox="0 0 18 18" fill="none" xmlns="http://www.w3.org/2000/svg">
<g clip-path="url(#clip0_470_3524)">
<g clip-path="url(#clip1_470_3524)">
<path d="M7.53574 11.5559C7.53574 12.2906 7.15254 13.493 6.24551 13.493C5.33848 13.493 4.95527 12.2906 4.95527 11.5559C4.95527 10.8211 5.33848 9.61875 6.24551 9.61875C7.15254 9.61875 7.53574 10.8211 7.53574 11.5559ZM17.8682 9.78047C17.8682 10.902 17.7557 12.0902 17.2529 13.1203C15.9205 15.8133 12.2572 15.75 9.63457 15.75C6.96973 15.75 3.08848 15.8449 1.70332 13.1203C1.19004 12.1008 0.993164 10.902 0.993164 9.78047C0.993164 8.30742 1.48184 6.91523 2.45215 5.78672C2.26934 5.23125 2.18145 4.64766 2.18145 4.07109C2.18145 3.31523 2.35371 2.93555 2.69473 2.25C4.2873 2.25 5.30684 2.56641 6.51973 3.51562C7.53926 3.27305 8.58691 3.16406 9.63809 3.16406C10.5873 3.16406 11.5436 3.26602 12.4646 3.4875C13.66 2.54883 14.6795 2.25 16.2545 2.25C16.599 2.93555 16.7678 3.31523 16.7678 4.07109C16.7678 4.64766 16.6764 5.2207 16.4971 5.76562C17.4639 6.90469 17.8682 8.30742 17.8682 9.78047ZM15.6076 11.5559C15.6076 10.0125 14.6689 8.65195 13.0236 8.65195C12.3592 8.65195 11.7229 8.77148 11.0549 8.86289C10.5311 8.94375 10.0072 8.97539 9.46934 8.97539C8.93496 8.97539 8.41113 8.94375 7.88379 8.86289C7.22637 8.77148 6.58301 8.65195 5.91504 8.65195C4.26973 8.65195 3.33105 10.0125 3.33105 11.5559C3.33105 14.6426 6.15762 15.1172 8.61855 15.1172H10.3131C12.7846 15.1172 15.6076 14.6461 15.6076 11.5559ZM12.7037 9.61875C11.7967 9.61875 11.4135 10.8211 11.4135 11.5559C11.4135 12.2906 11.7967 13.493 12.7037 13.493C13.6107 13.493 13.9939 12.2906 13.9939 11.5559C13.9939 10.8211 13.6107 9.61875 12.7037 9.61875Z" fill="white"/>
</g>
</g>
<defs>
<clipPath id="clip0_470_3524">
<rect width="18" height="18" fill="white" transform="translate(-0.00683594)"/>
</clipPath>
<clipPath id="clip1_470_3524">
<rect width="16.875" height="18" fill="white" transform="translate(0.993164)"/>
</clipPath>
</defs>
</svg>
