<svg width="38" height="38" viewBox="0 0 74 74" fill="none" xmlns="http://www.w3.org/2000/svg">
<g clip-path="url(#clip0_437_8211)">
<path d="M31.5519 62.8189C31.5519 64.3961 30.2737 65.6743 28.6965 65.6743C24.7966 65.6743 20.9826 64.7558 17.3609 62.9439C13.9847 61.2557 10.9296 58.8727 8.28059 55.8629C3.01822 49.8833 0 42.0684 0 34.4224V14.3924C0 13.2675 0.660306 12.2475 1.68646 11.7869L27.401 0.250478C28.1416 -0.0813484 28.9877 -0.0830215 29.7294 0.246574L55.6971 11.783C56.7283 12.2408 57.3931 13.2636 57.3931 14.3924V23.272C57.3931 24.8491 56.1149 26.1273 54.5377 26.1273C52.9606 26.1273 51.6823 24.8491 51.6823 23.272V16.2484L28.5755 5.98298L5.71075 16.2406V34.4224C5.71075 47.7897 16.6666 59.9636 28.6965 59.9636C30.2737 59.9636 31.5519 61.2418 31.5519 62.8189ZM68.1007 42.5458C66.4031 42.5458 64.9041 43.3934 64.0012 44.6873H31.9395C31.0366 43.3934 29.5375 42.5458 27.8399 42.5458C25.0805 42.5458 22.843 44.7827 22.843 47.5427C22.843 50.3021 25.0805 52.5396 27.8399 52.5396C29.5375 52.5396 31.0366 51.6919 31.9395 50.398H64.0012C64.9041 51.6919 66.4031 52.5396 68.1007 52.5396C70.8602 52.5396 73.0977 50.3021 73.0977 47.5427C73.0977 44.7827 70.8602 42.5458 68.1007 42.5458ZM61.2071 31.8381H44.9315C44.0286 30.5442 42.5295 29.6966 40.8319 29.6966C38.0724 29.6966 35.835 31.9335 35.835 34.6935C35.835 37.4529 38.0724 39.6904 40.8319 39.6904C42.5295 39.6904 44.0286 38.8427 44.9315 37.5488H62.39C63.1473 37.5488 63.8735 37.2482 64.4094 36.7129L70.1201 31.0021C70.6555 30.4662 70.9561 29.7401 70.9561 28.9827V15.379C72.25 14.4761 73.0977 12.977 73.0977 11.2794C73.0977 8.51936 70.8602 6.28246 68.1007 6.28246C65.3413 6.28246 63.1038 8.51936 63.1038 11.2794C63.1038 12.977 63.9515 14.4761 65.2454 15.379V27.7999L61.2071 31.8381ZM68.1007 63.1045C67.9301 63.1045 67.7617 63.1134 67.596 63.1301L62.8389 58.373C62.303 57.8371 61.5769 57.5365 60.8195 57.5365H45.1813C44.2701 56.57 42.9784 55.966 41.5457 55.966C38.7863 55.966 36.5488 58.2029 36.5488 60.9629C36.5488 63.7224 38.7863 65.9599 41.5457 65.9599C43.482 65.9599 45.1601 64.8579 45.9894 63.2472H59.6367L63.2572 66.8683C63.1574 67.2626 63.1038 67.6759 63.1038 68.1014C63.1038 70.8608 65.3413 73.0983 68.1007 73.0983C70.8602 73.0983 73.0977 70.8608 73.0977 68.1014C73.0977 65.3414 70.8602 63.1045 68.1007 63.1045Z" fill="#EE4503"/>
</g>
<defs>
<clipPath id="clip0_437_8211">
<rect width="73.0977" height="73.0977" fill="white" transform="translate(0 0.000244141)"/>
</clipPath>
</defs>
</svg>
