<svg width="18" height="18" viewBox="0 0 18 18" fill="none" xmlns="http://www.w3.org/2000/svg">
<g clip-path="url(#clip0_470_694)">
<path d="M1.43979 8.83766C1.47883 8.81684 1.51789 8.79707 1.55595 8.77834C2.21769 8.45158 2.8882 8.14565 3.55774 7.8397C3.59385 7.8397 3.65435 7.79496 3.68851 7.78039C3.74024 7.75645 3.79198 7.73356 3.8437 7.70963C3.94326 7.66384 4.04281 7.61909 4.14139 7.5733C4.34049 7.48277 4.53861 7.39223 4.73771 7.3017L5.92941 6.75745C6.72388 6.39532 7.51934 6.03214 8.31381 5.67C9.10828 5.30787 9.90371 4.94469 10.6982 4.58255C11.4926 4.22042 12.2881 3.85724 13.0826 3.49511C13.877 3.13297 14.6725 2.76979 15.4669 2.40766C15.6436 2.32649 15.8349 2.20577 16.0242 2.17039C16.1833 2.14021 16.3385 2.08194 16.4986 2.04968C16.8021 1.98829 17.1369 1.96331 17.4277 2.09755C17.5283 2.14438 17.621 2.20994 17.6981 2.29215C18.067 2.68134 18.0153 3.32028 17.9372 3.86765C17.3936 7.68257 16.8499 11.4985 16.3053 15.3134C16.2311 15.8369 16.1296 16.4113 15.7422 16.7422C15.4142 17.0221 14.9477 17.0534 14.5427 16.9347C14.1376 16.8151 13.7804 16.5643 13.43 16.3176C11.9767 15.2916 10.5225 14.2655 9.06923 13.2395C8.72373 12.996 8.33919 12.6776 8.34309 12.2353C8.34505 11.9689 8.49436 11.7316 8.64662 11.5204C9.90957 9.76381 11.7318 8.55669 13.0874 6.88129C13.2787 6.64507 13.429 6.21841 13.1665 6.08209C13.0103 6.00092 12.8307 6.11123 12.6882 6.21633C10.8963 7.54312 9.10535 8.87096 7.3134 10.1978C6.72878 10.6306 6.11585 11.076 5.41117 11.1822C4.78067 11.2779 4.14627 11.0906 3.53627 10.8991C3.02485 10.7389 2.51438 10.5745 2.00588 10.4048C1.73553 10.3153 1.45639 10.2186 1.24752 10.0156C1.03866 9.81272 0.918625 9.47139 1.04453 9.20083C1.12359 9.03121 1.27682 8.92403 1.43786 8.83661L1.43979 8.83766Z" fill="white"/>
</g>
<defs>
<clipPath id="clip0_470_694">
<rect width="18" height="18" fill="white" transform="translate(-0.00683594)"/>
</clipPath>
</defs>
</svg>
